<svg id="visual" viewBox="0 0 900 600" width="900" height="600" xmlns="http://www.w3.org/2000/svg" xmlns:xlink="http://www.w3.org/1999/xlink" version="1.1"><path d="M0 121L13.7 143C27.3 165 54.7 209 82 215C109.3 221 136.7 189 163.8 179C191 169 218 181 245.2 185C272.3 189 299.7 185 327 185C354.3 185 381.7 189 409 190C436.3 191 463.7 189 491 170C518.3 151 545.7 115 573 101C600.3 87 627.7 95 654.8 101C682 107 709 111 736.2 111C763.3 111 790.7 107 818 110C845.3 113 872.7 123 886.3 128L900 133L900 0L886.3 0C872.7 0 845.3 0 818 0C790.7 0 763.3 0 736.2 0C709 0 682 0 654.8 0C627.7 0 600.3 0 573 0C545.7 0 518.3 0 491 0C463.7 0 436.3 0 409 0C381.7 0 354.3 0 327 0C299.7 0 272.3 0 245.2 0C218 0 191 0 163.8 0C136.7 0 109.3 0 82 0C54.7 0 27.3 0 13.7 0L0 0Z" fill="#6198ff"></path><path d="M0 205L13.7 227C27.3 249 54.7 293 82 293C109.3 293 136.7 249 163.8 231C191 213 218 221 245.2 223C272.3 225 299.7 221 327 221C354.3 221 381.7 225 409 230C436.3 235 463.7 241 491 228C518.3 215 545.7 183 573 167C600.3 151 627.7 151 654.8 153C682 155 709 159 736.2 159C763.3 159 790.7 155 818 163C845.3 171 872.7 191 886.3 201L900 211L900 131L886.3 126C872.7 121 845.3 111 818 108C790.7 105 763.3 109 736.2 109C709 109 682 105 654.8 99C627.7 93 600.3 85 573 99C545.7 113 518.3 149 491 168C463.7 187 436.3 189 409 188C381.7 187 354.3 183 327 183C299.7 183 272.3 187 245.2 183C218 179 191 167 163.8 177C136.7 187 109.3 219 82 213C54.7 207 27.3 163 13.7 141L0 119Z" fill="#3c80ff"></path><path d="M0 271L13.7 291C27.3 311 54.7 351 82 352C109.3 353 136.7 315 163.8 314C191 313 218 349 245.2 352C272.3 355 299.7 325 327 317C354.3 309 381.7 323 409 331C436.3 339 463.7 341 491 330C518.3 319 545.7 295 573 277C600.3 259 627.7 247 654.8 255C682 263 709 291 736.2 305C763.3 319 790.7 319 818 320C845.3 321 872.7 323 886.3 324L900 325L900 209L886.3 199C872.7 189 845.3 169 818 161C790.7 153 763.3 157 736.2 157C709 157 682 153 654.8 151C627.7 149 600.3 149 573 165C545.7 181 518.3 213 491 226C463.7 239 436.3 233 409 228C381.7 223 354.3 219 327 219C299.7 219 272.3 223 245.2 221C218 219 191 211 163.8 229C136.7 247 109.3 291 82 291C54.7 291 27.3 247 13.7 225L0 203Z" fill="#0066ff"></path><path d="M0 379L13.7 390C27.3 401 54.7 423 82 414C109.3 405 136.7 365 163.8 363C191 361 218 397 245.2 407C272.3 417 299.7 401 327 395C354.3 389 381.7 393 409 398C436.3 403 463.7 409 491 402C518.3 395 545.7 375 573 356C600.3 337 627.7 319 654.8 331C682 343 709 385 736.2 399C763.3 413 790.7 399 818 400C845.3 401 872.7 417 886.3 425L900 433L900 323L886.3 322C872.7 321 845.3 319 818 318C790.7 317 763.3 317 736.2 303C709 289 682 261 654.8 253C627.7 245 600.3 257 573 275C545.7 293 518.3 317 491 328C463.7 339 436.3 337 409 329C381.7 321 354.3 307 327 315C299.7 323 272.3 353 245.2 350C218 347 191 311 163.8 312C136.7 313 109.3 351 82 350C54.7 349 27.3 309 13.7 289L0 269Z" fill="#0059dd"></path><path d="M0 601L13.7 601C27.3 601 54.7 601 82 601C109.3 601 136.7 601 163.8 601C191 601 218 601 245.2 601C272.3 601 299.7 601 327 601C354.3 601 381.7 601 409 601C436.3 601 463.7 601 491 601C518.3 601 545.7 601 573 601C600.3 601 627.7 601 654.8 601C682 601 709 601 736.2 601C763.3 601 790.7 601 818 601C845.3 601 872.7 601 886.3 601L900 601L900 431L886.3 423C872.7 415 845.3 399 818 398C790.7 397 763.3 411 736.2 397C709 383 682 341 654.8 329C627.7 317 600.3 335 573 354C545.7 373 518.3 393 491 400C463.7 407 436.3 401 409 396C381.7 391 354.3 387 327 393C299.7 399 272.3 415 245.2 405C218 395 191 359 163.8 361C136.7 363 109.3 403 82 412C54.7 421 27.3 399 13.7 388L0 377Z" fill="#004cbb"></path></svg>